<svg width="130" height="51" viewBox="0 0 130 51" fill="none" xmlns="http://www.w3.org/2000/svg">
<rect y="0.964844" width="50" height="50" rx="25" fill="black"/>
<path d="M25.0029 19.2988C21.3139 19.2988 18.3383 22.275 18.3383 25.9648C18.3383 29.6547 21.3139 32.6309 25.0029 32.6309C28.6919 32.6309 31.6675 29.6547 31.6675 25.9648C31.6675 22.275 28.6919 19.2988 25.0029 19.2988ZM25.0029 30.2987C22.619 30.2987 20.67 28.3551 20.67 25.9648C20.67 23.5746 22.6132 21.631 25.0029 21.631C27.3926 21.631 29.3358 23.5746 29.3358 25.9648C29.3358 28.3551 27.3868 30.2987 25.0029 30.2987ZM33.4946 19.0261C33.4946 19.8905 32.7986 20.5809 31.9401 20.5809C31.0759 20.5809 30.3856 19.8847 30.3856 19.0261C30.3856 18.1675 31.0817 17.4713 31.9401 17.4713C32.7986 17.4713 33.4946 18.1675 33.4946 19.0261ZM37.9086 20.6041C37.81 18.5214 37.3344 16.6764 35.8089 15.1564C34.2892 13.6364 32.4447 13.1606 30.3624 13.0562C28.2163 12.9344 21.7837 12.9344 19.6376 13.0562C17.5611 13.1548 15.7166 13.6306 14.1911 15.1506C12.6656 16.6706 12.1958 18.5156 12.0914 20.5983C11.9695 22.7449 11.9695 29.1789 12.0914 31.3255C12.19 33.4083 12.6656 35.2533 14.1911 36.7733C15.7166 38.2933 17.5553 38.769 19.6376 38.8735C21.7837 38.9953 28.2163 38.9953 30.3624 38.8735C32.4447 38.7748 34.2892 38.2991 35.8089 36.7733C37.3286 35.2533 37.8042 33.4083 37.9086 31.3255C38.0305 29.1789 38.0305 22.7507 37.9086 20.6041ZM35.1361 33.6288C34.6837 34.7659 33.8078 35.642 32.6651 36.1003C30.954 36.7791 26.8938 36.6224 25.0029 36.6224C23.112 36.6224 19.046 36.7733 17.3407 36.1003C16.2038 35.6478 15.3279 34.7717 14.8697 33.6288C14.1911 31.9173 14.3477 27.8562 14.3477 25.9648C14.3477 24.0735 14.1969 20.0066 14.8697 18.3009C15.3221 17.1638 16.198 16.2877 17.3407 15.8294C19.0518 15.1506 23.112 15.3073 25.0029 15.3073C26.8938 15.3073 30.9598 15.1564 32.6651 15.8294C33.802 16.2819 34.6779 17.158 35.1361 18.3009C35.8147 20.0124 35.6581 24.0735 35.6581 25.9648C35.6581 27.8562 35.8147 31.9231 35.1361 33.6288Z" fill="white"/>
<rect x="80" y="0.964844" width="50" height="50" rx="25" fill="black"/>
<path d="M113.247 13.2235C113.247 13.0246 113.168 12.8339 113.028 12.6933C112.887 12.5527 112.696 12.4737 112.498 12.4737H108.749C106.861 12.3797 105.013 13.0366 103.608 14.301C102.203 15.5653 101.356 17.3344 101.251 19.2215V23.2702H97.5024C97.3036 23.2702 97.1129 23.3492 96.9723 23.4898C96.8317 23.6304 96.7527 23.8211 96.7527 24.0199V27.9186C96.7527 28.1175 96.8317 28.3082 96.9723 28.4488C97.1129 28.5894 97.3036 28.6684 97.5024 28.6684H101.251V38.7151C101.251 38.9139 101.33 39.1046 101.471 39.2452C101.611 39.3859 101.802 39.4648 102.001 39.4648H106.499C106.698 39.4648 106.889 39.3859 107.03 39.2452C107.17 39.1046 107.249 38.9139 107.249 38.7151V28.6684H111.178C111.345 28.6708 111.507 28.6175 111.641 28.517C111.774 28.4166 111.869 28.2746 111.913 28.1136L112.992 24.2149C113.022 24.1041 113.026 23.9879 113.004 23.8753C112.982 23.7628 112.934 23.6568 112.865 23.5655C112.795 23.4743 112.706 23.4002 112.603 23.349C112.5 23.2978 112.387 23.2708 112.273 23.2702H107.249V19.2215C107.287 18.8503 107.461 18.5064 107.738 18.2569C108.015 18.0073 108.376 17.8701 108.749 17.8719H112.498C112.696 17.8719 112.887 17.7929 113.028 17.6523C113.168 17.5117 113.247 17.321 113.247 17.1222V13.2235Z" fill="white"/>
</svg>
